<svg height="512" viewBox="0 0 60 60" width="512" xmlns="http://www.w3.org/2000/svg"><g id="Page-1" fill="none" fill-rule="evenodd"><g id="002---French-Flag" fill-rule="nonzero"><path id="Rectangle-path" d="m2 6.23h4v52.77h-4z" fill="#607d8b"/><path id="Shape" d="m59 9.28v33.94c-.0049041.460135-.3155658.8607251-.76.98-7.48 1.88-12.26 1.68-16.24.8v-36.01c3.89.87 8.56 1.07 15.77-.68.2969325-.07017749.6096579-.00095509.8492353.18797995.2395774.18893505.3797916.47690885.3807647.78202005z" fill="#f44335"/><path id="Shape" d="m57.77 8.31c-.669.162-1.309.3-1.935.432.1064663.15932101.1638367.34638347.165.538v33.94c-.0049041.460135-.3155658.8607251-.76.98-2.8719049.7564762-5.8115091 1.2274291-8.776 1.406 3.9737021.1261667 7.9437019-.347833 11.776-1.406.4444342-.1192749.7550959-.519865.76-.98v-33.94c-.0009731-.3051112-.1411873-.593085-.3807647-.78202005-.2395774-.18893504-.5523028-.25815744-.8492353-.18797995z" fill="#c81e1e"/><path id="Shape" d="m42 8.99v36.01c-5.75-1.28-9.84-4-18-4-.34 0-.67 0-1 .02v-36c.33-.02.66-.02 1-.02 8.16 0 12.24 2.72 18 3.99z" fill="#f5f5f5"/><path id="Shape" d="m23 5.02v36c-12.26.29-17 5.98-17 5.98v-36s4.74-5.69 17-5.98z" fill="#3f51b5"/><circle id="Oval" cx="4" cy="4" fill="#7f8e94" r="3"/><path id="Shape" d="m59.235 7.71c-.4790556-.37937293-1.1064442-.51629125-1.7-.371-10.435 2.536-15.351.883-20.555-.87-4.1429979-1.59682645-8.5400669-2.43321808-12.98-2.469-.334 0-.64.02-.963.027-.013 0-.024-.007-.037-.007s-.032.009-.049.01c-8.5.214-13.539 2.927-15.951 4.739v-2.151c1.16632081-1.33675265 1.31054498-3.28282473.35401813-4.77690246-.95652686-1.49407772-2.78428827-2.17766049-4.48649258-1.67794822-1.70220432.49971227-2.87041143 2.06281473-2.86752555 3.83685068.0036267.96528322.35917479 1.89610811 1 2.618v52.382c0 .5522847.44771525 1 1 1h4c.55228475 0 1-.4477153 1-1v-11.6c1.1-1.076 6.172-5.4 17-5.4 4.2228021.0424197 8.4036016.8434884 12.343 2.365 5.564 1.872 10.818 3.64 22.142.8.8913451-.2228006 1.5162388-1.024232 1.515-1.943v-33.938c.0014652-.61458579-.2808423-1.19543804-.765-1.574zm-55.235-5.71c1.1045695 0 2 .8954305 2 2s-.8954305 2-2 2-2-.8954305-2-2 .8954305-2 2-2zm1 56h-2v-50.142c.32585845.09005067.66195413.13777626 1 .142.33804587-.00422374.67414155-.05194933 1-.142zm2-13.231v-33.369c1.034-1.014 5.555-4.86 15-5.347v34c-7.935.381-12.678 2.972-15 4.716zm17-4.769v-34c4.2228021.04241973 8.4036016.84348842 12.343 2.365 1.53.515 3.041 1.018 4.657 1.423v33.933c-1.385-.366-2.693-.8-4.019-1.252-4.1433481-1.5968178-8.5407433-2.4332071-12.981-2.469zm34 3.222c-6.793 1.7-11.281 1.659-15 .95v-33.952c3.767.675 8.3.692 15-.936z" fill="#000"/></g></g></svg>